 <svg xmlns="http://www.w3.org/2000/svg" xmlns:xlink="http://www.w3.org/1999/xlink" width="800" height="600" viewBox="0 0 800 600"> 
<circle cx="100" cy="300" r="30 " stroke="black" stroke-width="2" fill="none" > </circle> 
<text x="100" y="300" dominant-baseline="middle " fill="black" > i </text> 
<circle cx="200" cy="300" r="30 " stroke="black" stroke-width="2" fill="none" > </circle> 
<text x="200" y="300" dominant-baseline="middle " fill="black" > z </text> 
<circle cx="200" cy="200" r="30 " stroke="black" stroke-width="2" fill="none" > </circle> 
<text x="200" y="200" dominant-baseline="middle " fill="black" > u </text> 
<circle cx="300" cy="300" r="30 " stroke="black" stroke-width="2" fill="none" > </circle> 
<text x="300" y="300" dominant-baseline="middle " fill="black" > f </text> 
<path fill="none"  d="M 130,300 L 170,300" stroke="black"></path> 
 <text x="149" y="329" fill="black" text-anchor="middle"> a </text> 
 <path fill="none"  d="M 205.21 329.54 A 15 20 0 1 1 194.79 329.54" stroke="black"></path> 
 <text x="200" y="270" fill="black" text-anchor="middle"> a </text> 
 <path fill="none"  d="M 194.79,270.46 A 5,15 0 0 1 194.79,229.54" stroke="black"></path> 
 <text x="229" y="250" fill="black" text-anchor="middle"> b </text> 
 <path fill="none"  d="M 205.21,229.54 A 5,15 0 0 1 205.21,270.46" stroke="black"></path> 
 <text x="229" y="250" fill="black" text-anchor="middle"> cs </text> 
 <path fill="none"  d="M 230,300 L 270,300" stroke="black"></path> 
 <text x="249" y="329" fill="black" text-anchor="middle"> a </text> 
 </svg>