 <svg xmlns="http://www.w3.org/2000/svg" xmlns:xlink="http://www.w3.org/1999/xlink" width="800" height="600" viewBox="0 0 800 600"> 
<circle cx="100" cy="300" r="30 " stroke="black" stroke-width="2" fill="none" > </circle> 
<text x="100" y="300" dominant-baseline="middle " fill="black" > i </text> 
<circle cx="200" cy="300" r="30 " stroke="black" stroke-width="2" fill="none" > </circle> 
<text x="200" y="300" dominant-baseline="middle " fill="black" > z </text> 
<circle cx="200" cy="200" r="30 " stroke="black" stroke-width="2" fill="none" > </circle> 
<text x="200" y="200" dominant-baseline="middle " fill="black" > u </text> 
<circle cx="300." cy="300" r="30 " stroke="black" stroke-width="2" fill="none" > </circle> 
<text x="300." y="300" dominant-baseline="middle " fill="black" > f </text> 
<path fill="none"  d="M200 300 Q 149.976110199 329.999990488 100 300" stroke="black"></path> 
  <text x="149.976110199" y="329.999990488" fill="black" text-anchor="middle"> a </text> 
 <path fill="none"  d="M200 300 Q 200.023889801 270.000009512 200 300" stroke="black"></path> 
  <text x="200.023889801" y="270.000009512" fill="black" text-anchor="middle"> a </text> 
 <path fill="none"  d="M200 200 Q 229.999990488 250.023889801 200 300" stroke="black"></path> 
  <text x="229.999990488" y="250.023889801" fill="black" text-anchor="middle"> b </text> 
 <path fill="none"  d="M200 200 Q 229.999990488 250.023889801 200 300" stroke="black"></path> 
  <text x="229.999990488" y="250.023889801" fill="black" text-anchor="middle"> b </text> 
 <path fill="none"  d="M300 300 Q 249.976110199 329.999990488 200 300" stroke="black"></path> 
  <text x="249.976110199" y="329.999990488" fill="black" text-anchor="middle"> a </text> 
 </svg>