<?xml version="1.0" encoding="UTF-8" standalone="no"?>
<!DOCTYPE svg PUBLIC "-//W3C//DTD SVG 1.1//EN"
 "http://www.w3.org/Graphics/SVG/1.1/DTD/svg11.dtd">
<!-- Generated by graphviz version 2.43.0 (0)
 -->
<!-- Title: G Pages: 1 -->
<svg width="262pt" height="144pt"
 viewBox="0.00 0.00 262.00 144.00" xmlns="http://www.w3.org/2000/svg" xmlns:xlink="http://www.w3.org/1999/xlink">
<g id="graph0" class="graph" transform="scale(1 1) rotate(0) translate(4 140)">
<title>G</title>
<polygon fill="white" stroke="transparent" points="-4,4 -4,-140 258,-140 258,4 -4,4"/>
<!-- i -->
<g id="node1" class="node">
<title>i</title>
<ellipse fill="none" stroke="black" stroke-width="2" cx="27" cy="-118" rx="27" ry="18"/>
<text text-anchor="middle" x="27" y="-114.3" font-family="Times,serif" font-size="14.00">i</text>
</g>
<!-- z -->
<g id="node2" class="node">
<title>z</title>
<ellipse fill="none" stroke="black" stroke-width="2" cx="127" cy="-118" rx="27" ry="18"/>
<text text-anchor="middle" x="127" y="-114.3" font-family="Times,serif" font-size="14.00">z</text>
</g>
<!-- i&#45;&gt;z -->
<g id="edge1" class="edge">
<title>i&#45;&gt;z</title>
<path fill="none" stroke="black" d="M54.06,-118C65.07,-118 77.97,-118 89.83,-118"/>
<polygon fill="black" stroke="black" points="89.92,-121.5 99.92,-118 89.92,-114.5 89.92,-121.5"/>
<text text-anchor="middle" x="67.45" y="-121.8" font-family="Times,serif" font-size="14.00">a</text>
</g>
<!-- z&#45;&gt;z -->
<g id="edge2" class="edge">
<title>z&#45;&gt;z</title>
<path fill="none" stroke="black" d="M152.44,-124.69C163.03,-125.15 172,-122.92 172,-118 172,-114.77 168.14,-112.7 162.49,-111.79"/>
<polygon fill="black" stroke="black" points="162.6,-108.29 152.44,-111.31 162.27,-115.28 162.6,-108.29"/>
<text text-anchor="middle" x="176.5" y="-114.3" font-family="Times,serif" font-size="14.00">a</text>
</g>
<!-- u -->
<g id="node3" class="node">
<title>u</title>
<ellipse fill="none" stroke="black" stroke-width="2" cx="127" cy="-18" rx="27" ry="18"/>
<text text-anchor="middle" x="127" y="-14.3" font-family="Times,serif" font-size="14.00">u</text>
</g>
<!-- z&#45;&gt;u -->
<g id="edge3" class="edge">
<title>z&#45;&gt;u</title>
<path fill="none" stroke="black" d="M132.32,-100.12C133.9,-85.05 134.17,-63.22 133.12,-45.86"/>
<polygon fill="black" stroke="black" points="136.6,-45.41 132.3,-35.72 129.62,-45.97 136.6,-45.41"/>
<text text-anchor="middle" x="127.72" y="-76.79" font-family="Times,serif" font-size="14.00">b</text>
</g>
<!-- f -->
<g id="node4" class="node">
<title>f</title>
<ellipse fill="none" stroke="black" stroke-width="2" cx="227" cy="-118" rx="27" ry="18"/>
<text text-anchor="middle" x="227" y="-114.3" font-family="Times,serif" font-size="14.00">f</text>
</g>
<!-- z&#45;&gt;f -->
<g id="edge5" class="edge">
<title>z&#45;&gt;f</title>
<path fill="none" stroke="black" d="M154.06,-118C165.07,-118 177.97,-118 189.83,-118"/>
<polygon fill="black" stroke="black" points="189.92,-121.5 199.92,-118 189.92,-114.5 189.92,-121.5"/>
<text text-anchor="middle" x="167.45" y="-121.8" font-family="Times,serif" font-size="14.00">a</text>
</g>
<!-- u&#45;&gt;z -->
<g id="edge4" class="edge">
<title>u&#45;&gt;z</title>
<path fill="none" stroke="black" d="M121.68,-35.88C120.1,-50.95 119.83,-72.78 120.88,-90.14"/>
<polygon fill="black" stroke="black" points="117.4,-90.59 121.7,-100.28 124.38,-90.03 117.4,-90.59"/>
<text text-anchor="middle" x="116.28" y="-66.81" font-family="Times,serif" font-size="14.00">b</text>
</g>
</g>
</svg>
