<?xml version="1.0" encoding="UTF-8" standalone="no"?>
<!DOCTYPE svg PUBLIC "-//W3C//DTD SVG 1.1//EN"
 "http://www.w3.org/Graphics/SVG/1.1/DTD/svg11.dtd">
<!-- Generated by graphviz version 2.43.0 (0)
 -->
<!-- Title: G Pages: 1 -->
<svg width="162pt" height="147pt"
 viewBox="0.00 0.00 162.00 147.24" xmlns="http://www.w3.org/2000/svg" xmlns:xlink="http://www.w3.org/1999/xlink">
<g id="graph0" class="graph" transform="scale(1 1) rotate(0) translate(4 143.24)">
<title>G</title>
<polygon fill="white" stroke="transparent" points="-4,4 -4,-143.24 158,-143.24 158,4 -4,4"/>
<!-- i -->
<g id="node1" class="node">
<title>i</title>
<ellipse fill="none" stroke="black" stroke-width="2" cx="27" cy="-118" rx="27" ry="18"/>
<text text-anchor="middle" x="27" y="-114.3" font-family="Times,serif" font-size="14.00">i</text>
</g>
<!-- z -->
<g id="node2" class="node">
<title>z</title>
<ellipse fill="none" stroke="black" stroke-width="2" cx="127" cy="-118" rx="27" ry="18"/>
<text text-anchor="middle" x="127" y="-114.3" font-family="Times,serif" font-size="14.00">z</text>
</g>
<!-- i&#45;&gt;z -->
<g id="edge1" class="edge">
<title>i&#45;&gt;z</title>
<path fill="none" stroke="black" d="M52.49,-123.97C64.16,-124.78 78.18,-124.96 90.91,-124.51"/>
<polygon fill="black" stroke="black" points="91.4,-127.99 101.21,-123.99 91.04,-121 91.4,-127.99"/>
<text text-anchor="middle" x="67.2" y="-128.04" font-family="Times,serif" font-size="14.00">a</text>
</g>
<!-- z&#45;&gt;i -->
<g id="edge2" class="edge">
<title>z&#45;&gt;i</title>
<path fill="none" stroke="black" d="M101.51,-112.03C89.84,-111.22 75.82,-111.04 63.09,-111.49"/>
<polygon fill="black" stroke="black" points="62.6,-108.01 52.79,-112.01 62.96,-115 62.6,-108.01"/>
<text text-anchor="middle" x="77.8" y="-115.56" font-family="Times,serif" font-size="14.00">a</text>
</g>
<!-- u -->
<g id="node3" class="node">
<title>u</title>
<ellipse fill="none" stroke="black" stroke-width="2" cx="127" cy="-18" rx="27" ry="18"/>
<text text-anchor="middle" x="127" y="-14.3" font-family="Times,serif" font-size="14.00">u</text>
</g>
<!-- z&#45;&gt;u -->
<g id="edge3" class="edge">
<title>z&#45;&gt;u</title>
<path fill="none" stroke="black" d="M132.32,-100.12C133.9,-85.05 134.17,-63.22 133.12,-45.86"/>
<polygon fill="black" stroke="black" points="136.6,-45.41 132.3,-35.72 129.62,-45.97 136.6,-45.41"/>
<text text-anchor="middle" x="128.22" y="-76.79" font-family="Times,serif" font-size="14.00">a</text>
</g>
<!-- u&#45;&gt;z -->
<g id="edge4" class="edge">
<title>u&#45;&gt;z</title>
<path fill="none" stroke="black" d="M121.68,-35.88C120.1,-50.95 119.83,-72.78 120.88,-90.14"/>
<polygon fill="black" stroke="black" points="117.4,-90.59 121.7,-100.28 124.38,-90.03 117.4,-90.59"/>
<text text-anchor="middle" x="116.28" y="-66.81" font-family="Times,serif" font-size="14.00">b</text>
</g>
</g>
</svg>
