<?xml version="1.0" encoding="UTF-8" standalone="no"?>
<!DOCTYPE svg PUBLIC "-//W3C//DTD SVG 1.1//EN"
 "http://www.w3.org/Graphics/SVG/1.1/DTD/svg11.dtd">
<!-- Generated by graphviz version 2.43.0 (0)
 -->
<!-- Title: G Pages: 1 -->
<svg width="366pt" height="244pt"
 viewBox="0.00 0.00 365.55 244.00" xmlns="http://www.w3.org/2000/svg" xmlns:xlink="http://www.w3.org/1999/xlink">
<g id="graph0" class="graph" transform="scale(1 1) rotate(0) translate(4 240)">
<title>G</title>
<polygon fill="white" stroke="transparent" points="-4,4 -4,-240 361.55,-240 361.55,4 -4,4"/>
<!-- un -->
<g id="node1" class="node">
<title>un</title>
<ellipse fill="none" stroke="black" stroke-width="2" cx="27" cy="-118" rx="27" ry="18"/>
<text text-anchor="middle" x="27" y="-114.3" font-family="Times,serif" font-size="14.00">un</text>
</g>
<!-- deux -->
<g id="node2" class="node">
<title>deux</title>
<ellipse fill="none" stroke="black" stroke-width="2" cx="127" cy="-18" rx="33.29" ry="18"/>
<text text-anchor="middle" x="127" y="-14.3" font-family="Times,serif" font-size="14.00">deux</text>
</g>
<!-- un&#45;&gt;deux -->
<g id="edge13" class="edge">
<title>un&#45;&gt;deux</title>
<path fill="none" stroke="black" d="M42.19,-102.81C58.59,-86.41 84.91,-60.09 103.88,-41.12"/>
<polygon fill="black" stroke="black" points="106.41,-43.54 111.01,-33.99 101.46,-38.59 106.41,-43.54"/>
<text text-anchor="middle" x="68.53" y="-75.77" font-family="Times,serif" font-size="14.00">a</text>
</g>
<!-- quatre -->
<g id="node3" class="node">
<title>quatre</title>
<ellipse fill="none" stroke="black" stroke-width="2" cx="127" cy="-218" rx="41.69" ry="18"/>
<text text-anchor="middle" x="127" y="-214.3" font-family="Times,serif" font-size="14.00">quatre</text>
</g>
<!-- un&#45;&gt;quatre -->
<g id="edge14" class="edge">
<title>un&#45;&gt;quatre</title>
<path fill="none" stroke="black" d="M42.19,-133.19C58.39,-149.39 84.29,-175.29 103.21,-194.21"/>
<polygon fill="black" stroke="black" points="100.79,-196.74 110.33,-201.33 105.74,-191.79 100.79,-196.74"/>
<text text-anchor="middle" x="67.7" y="-167.5" font-family="Times,serif" font-size="14.00">b</text>
</g>
<!-- p -->
<g id="node5" class="node">
<title>p</title>
<ellipse fill="none" stroke="black" stroke-width="2" cx="167" cy="-118" rx="27" ry="18"/>
<text text-anchor="middle" x="167" y="-114.3" font-family="Times,serif" font-size="14.00">p</text>
</g>
<!-- un&#45;&gt;p -->
<g id="edge1" class="edge">
<title>un&#45;&gt;p</title>
<path fill="none" stroke="black" d="M53,-123.39C74.91,-124.97 106.48,-125.17 130.85,-123.99"/>
<polygon fill="black" stroke="black" points="131.36,-127.47 141.13,-123.38 130.94,-120.48 131.36,-127.47"/>
<text text-anchor="middle" x="86.93" y="-127.49" font-family="Times,serif" font-size="14.00">d</text>
</g>
<!-- un&#45;&gt;p -->
<g id="edge2" class="edge">
<title>un&#45;&gt;p</title>
<path fill="none" stroke="black" d="M53,-112.61C74.91,-111.03 106.48,-110.83 130.85,-112.01"/>
<polygon fill="black" stroke="black" points="130.94,-115.52 141.13,-112.62 131.36,-108.53 130.94,-115.52"/>
<text text-anchor="middle" x="87.93" y="-101.11" font-family="Times,serif" font-size="14.00">c</text>
</g>
<!-- deux&#45;&gt;deux -->
<g id="edge15" class="edge">
<title>deux&#45;&gt;deux</title>
<path fill="none" stroke="black" d="M159.96,-21.37C170.15,-21.3 178.15,-20.18 178.15,-18 178.15,-16.64 175.02,-15.69 170.19,-15.15"/>
<polygon fill="black" stroke="black" points="170.12,-11.64 159.96,-14.63 169.77,-18.63 170.12,-11.64"/>
<text text-anchor="middle" x="183.15" y="-14.3" font-family="Times,serif" font-size="14.00">b</text>
</g>
<!-- deux&#45;&gt;deux -->
<g id="edge16" class="edge">
<title>deux&#45;&gt;deux</title>
<path fill="none" stroke="black" d="M158.29,-24.27C177.69,-25.79 196.15,-23.7 196.15,-18 196.15,-13.33 183.73,-11.08 168.55,-11.26"/>
<polygon fill="black" stroke="black" points="168.12,-7.78 158.29,-11.73 168.44,-14.77 168.12,-7.78"/>
<text text-anchor="middle" x="200.65" y="-14.3" font-family="Times,serif" font-size="14.00">a</text>
</g>
<!-- cinq -->
<g id="node4" class="node">
<title>cinq</title>
<ellipse fill="none" stroke="black" stroke-width="2" cx="327" cy="-118" rx="30.59" ry="18"/>
<text text-anchor="middle" x="327" y="-114.3" font-family="Times,serif" font-size="14.00">cinq</text>
</g>
<!-- deux&#45;&gt;cinq -->
<g id="edge17" class="edge">
<title>deux&#45;&gt;cinq</title>
<path fill="none" stroke="black" d="M146.45,-32.61C179.67,-52.41 247.75,-86.77 290.18,-105.46"/>
<polygon fill="black" stroke="black" points="289.03,-108.77 299.6,-109.52 291.81,-102.35 289.03,-108.77"/>
<text text-anchor="middle" x="214.31" y="-72.83" font-family="Times,serif" font-size="14.00">c</text>
</g>
<!-- deux&#45;&gt;cinq -->
<g id="edge18" class="edge">
<title>deux&#45;&gt;cinq</title>
<path fill="none" stroke="black" d="M155.69,-27.02C193.96,-43.28 261.22,-76.83 299.1,-98.46"/>
<polygon fill="black" stroke="black" points="297.66,-101.68 308.06,-103.69 301.18,-95.63 297.66,-101.68"/>
<text text-anchor="middle" x="222.39" y="-51.54" font-family="Times,serif" font-size="14.00">d</text>
</g>
<!-- quatre&#45;&gt;cinq -->
<g id="edge19" class="edge">
<title>quatre&#45;&gt;cinq</title>
<path fill="none" stroke="black" d="M160.51,-206.9C199.35,-190.02 262.59,-158.38 298.94,-137.63"/>
<polygon fill="black" stroke="black" points="301.13,-140.4 308.01,-132.34 297.6,-134.35 301.13,-140.4"/>
<text text-anchor="middle" x="225.73" y="-176.06" font-family="Times,serif" font-size="14.00">c</text>
</g>
<!-- quatre&#45;&gt;cinq -->
<g id="edge20" class="edge">
<title>quatre&#45;&gt;cinq</title>
<path fill="none" stroke="black" d="M148.31,-202.29C182.28,-182.27 248.99,-148.65 290.61,-130.35"/>
<polygon fill="black" stroke="black" points="292.06,-133.54 299.85,-126.37 289.29,-127.11 292.06,-133.54"/>
<text text-anchor="middle" x="214.46" y="-170.12" font-family="Times,serif" font-size="14.00">d</text>
</g>
<!-- quatre&#45;&gt;p -->
<g id="edge3" class="edge">
<title>quatre&#45;&gt;p</title>
<path fill="none" stroke="black" d="M139.78,-200.75C147.46,-185.66 156.51,-163.5 162.28,-145.9"/>
<polygon fill="black" stroke="black" points="165.69,-146.74 165.27,-136.15 158.99,-144.69 165.69,-146.74"/>
<text text-anchor="middle" x="146.53" y="-177.12" font-family="Times,serif" font-size="14.00">a</text>
</g>
<!-- quatre&#45;&gt;p -->
<g id="edge4" class="edge">
<title>quatre&#45;&gt;p</title>
<path fill="none" stroke="black" d="M128.81,-199.57C133.27,-183.76 142.09,-160.87 150.28,-143.35"/>
<polygon fill="black" stroke="black" points="153.48,-144.77 154.74,-134.24 147.2,-141.69 153.48,-144.77"/>
<text text-anchor="middle" x="134.54" y="-175.26" font-family="Times,serif" font-size="14.00">b</text>
</g>
<!-- cinq&#45;&gt;p -->
<g id="edge5" class="edge">
<title>cinq&#45;&gt;p</title>
<path fill="none" stroke="black" d="M307.38,-104.16C279.34,-96.37 227.64,-95.68 195.42,-102.09"/>
<polygon fill="black" stroke="black" points="194.19,-98.78 185.3,-104.54 195.84,-105.59 194.19,-98.78"/>
<text text-anchor="middle" x="246.4" y="-91.92" font-family="Times,serif" font-size="14.00">d</text>
</g>
<!-- cinq&#45;&gt;p -->
<g id="edge6" class="edge">
<title>cinq&#45;&gt;p</title>
<path fill="none" stroke="black" d="M307.38,-131.84C279.34,-139.63 227.64,-140.32 195.42,-133.91"/>
<polygon fill="black" stroke="black" points="195.84,-130.41 185.3,-131.46 194.19,-137.22 195.84,-130.41"/>
<text text-anchor="middle" x="247.4" y="-136.68" font-family="Times,serif" font-size="14.00">c</text>
</g>
<!-- cinq&#45;&gt;p -->
<g id="edge7" class="edge">
<title>cinq&#45;&gt;p</title>
<path fill="none" stroke="black" d="M297.65,-123.36C270.98,-125.08 231.54,-125.2 202.97,-123.74"/>
<polygon fill="black" stroke="black" points="203.18,-120.25 192.98,-123.14 202.75,-127.24 203.18,-120.25"/>
<text text-anchor="middle" x="245.81" y="-112.35" font-family="Times,serif" font-size="14.00">a</text>
</g>
<!-- cinq&#45;&gt;p -->
<g id="edge8" class="edge">
<title>cinq&#45;&gt;p</title>
<path fill="none" stroke="black" d="M297.65,-112.64C270.98,-110.92 231.54,-110.8 202.97,-112.26"/>
<polygon fill="black" stroke="black" points="202.75,-108.76 192.98,-112.86 203.18,-115.75 202.75,-108.76"/>
<text text-anchor="middle" x="255.31" y="-101.25" font-family="Times,serif" font-size="14.00">b</text>
</g>
<!-- p&#45;&gt;p -->
<g id="edge9" class="edge">
<title>p&#45;&gt;p</title>
<path fill="none" stroke="black" d="M194.24,-119.69C204.02,-119.72 212,-119.16 212,-118 212,-117.29 209.04,-116.81 204.51,-116.55"/>
<polygon fill="black" stroke="black" points="204.32,-113.04 194.24,-116.31 204.16,-120.04 204.32,-113.04"/>
<text text-anchor="middle" x="217" y="-114.3" font-family="Times,serif" font-size="14.00">d</text>
</g>
<!-- p&#45;&gt;p -->
<g id="edge10" class="edge">
<title>p&#45;&gt;p</title>
<path fill="none" stroke="black" d="M193.11,-122.7C226.32,-126.55 266,-124.98 266,-118 266,-111.73 233.97,-109.83 203.38,-112.29"/>
<polygon fill="black" stroke="black" points="202.72,-108.84 193.11,-113.3 203.4,-115.81 202.72,-108.84"/>
<text text-anchor="middle" x="270" y="-114.3" font-family="Times,serif" font-size="14.00">c</text>
</g>
<!-- p&#45;&gt;p -->
<g id="edge11" class="edge">
<title>p&#45;&gt;p</title>
<path fill="none" stroke="black" d="M193.55,-122.02C219.49,-124.25 248,-122.9 248,-118 248,-113.73 226.37,-112.16 203.64,-113.3"/>
<polygon fill="black" stroke="black" points="203.29,-109.81 193.55,-113.98 203.76,-116.8 203.29,-109.81"/>
<text text-anchor="middle" x="252.5" y="-114.3" font-family="Times,serif" font-size="14.00">a</text>
</g>
<!-- p&#45;&gt;p -->
<g id="edge12" class="edge">
<title>p&#45;&gt;p</title>
<path fill="none" stroke="black" d="M193.87,-121.06C212.13,-121.96 230,-120.94 230,-118 230,-115.61 218.2,-114.49 203.98,-114.64"/>
<polygon fill="black" stroke="black" points="203.76,-111.14 193.87,-114.94 203.97,-118.14 203.76,-111.14"/>
<text text-anchor="middle" x="235" y="-114.3" font-family="Times,serif" font-size="14.00">b</text>
</g>
</g>
</svg>
