 <svg xmlns="http://www.w3.org/2000/svg" xmlns:xlink="http://www.w3.org/1999/xlink" width="800" height="600" viewBox="0 0 800 600"> 
<circle cx="100" cy="300" r="30 " stroke="black" stroke-width="2" fill="none" > </circle> 
<text x="100" y="300" dominant-baseline="middle " fill="black" > i </text> 
<circle cx="200" cy="300" r="30 " stroke="black" stroke-width="2" fill="none" > </circle> 
<text x="200" y="300" dominant-baseline="middle " fill="black" > 0 </text> 
<circle cx="200" cy="200" r="30 " stroke="black" stroke-width="2" fill="none" > </circle> 
<text x="200" y="200" dominant-baseline="middle " fill="black" > 1 </text> 
<circle cx="300" cy="300" r="30 " stroke="black" stroke-width="2" fill="none" > </circle> 
<text x="300" y="300" dominant-baseline="middle " fill="black" > f </text> 
<path fill="none"  d="M 130 300 L 170 300" stroke="black"></path> 
 <text x="155" y="301" fill="black" text-anchor="middle"> a  </text> 
 <path fill="black"  d="M170,300l -8,-8 l 0,16 Z" stroke="black"></path> 
<path fill="none"  d="M205 329 A 15 20 0 1 1 195 329" stroke="black"></path> 
 <text x="230" y="360" fill="black" text-anchor="middle"> a  </text> 
 <path fill="black"  d="M195,329l -11 2 l 9 9 Z" stroke="black"></path> 
<path fill="none"  d="M195,270 A 5,15 0 0 1 195,230" stroke="black"></path> 
 <text x="170" y="254" fill="black" text-anchor="middle"> b  </text> 
 <path fill="black"  d="M195,230l -11 2 l 9 9 Z" stroke="black"></path> 
<path fill="none"  d="M205,230 A 5,15 0 0 1 205,270" stroke="black"></path> 
 <text x="230" y="254" fill="black" text-anchor="middle"> b  </text> 
 <path fill="black"  d="M205,270l 11,-2 l -9,-9 Z" stroke="black"></path> 
<path fill="none"  d="M230 300 L 270 300" stroke="black"></path> 
 <text x="250" y="295" fill="black" text-anchor="middle"> a  </text> 
 <path fill="black"  d="M270,300l -8,-8 l 0,16 Z" stroke="black"></path> 
<path stroke="black" d="M 70 300 l-30 0"></path><path fill="black"  d="M70,300l -8,-8 l 0,16 Z" stroke="black"></path> 
<path stroke="black" d="M 330 300 l30 0"></path><path fill="black"  d="M360,300l -8,-8 l 0,16 Z" stroke="black"></path> 
</svg>