 <svg xmlns="http://www.w3.org/2000/svg" xmlns:xlink="http://www.w3.org/1999/xlink" width="800" height="600" viewBox="0 0 800 600"> 
 <circle cx="300" cy="300" r="30 " stroke="black" stroke-width="2" fill="none" > </circle> 
<text x="300" y="300" dominant-baseline="middle " fill="black" >f</text> 
<circle cx="200" cy="200" r="30 " stroke="black" stroke-width="2" fill="none" > </circle> 
<text x="200" y="200" dominant-baseline="middle " fill="black" >1</text> 
<circle cx="200" cy="300" r="30 " stroke="black" stroke-width="2" fill="none" > </circle> 
<text x="200" y="300" dominant-baseline="middle " fill="black" >0</text> 
<circle cx="100" cy="300" r="30 " stroke="black" stroke-width="2" fill="none" > </circle> 
<text x="100" y="300" dominant-baseline="middle " fill="black" >i</text> 
<path fill="none"  d="M130,300 A 10,10 0 0 1 170,300" stroke="black"></path> 
 <text x="146" y="270" fill="black" text-anchor="middle"> b a  </text> 
 <path fill="black"  d="M170,300 l -10 -4 l 10 -9 Z" stroke="black"></path> 
<path fill="none"  d="M130,300 A 10,10 0 0 1 170,300" stroke="black"></path> 
 <text x="146" y="270" fill="black" text-anchor="middle"> b a  </text> 
 <path fill="black"  d="M170,300 l -10 -4 l 10 -9 Z" stroke="black"></path> 
<path stroke="black" d="M 330 300 l30 0"></path><path fill="black"  d="M360,300l -8,-8 l 0,16 Z" stroke="black"></path> 
<path stroke="black" d="M 70 300 l-30 0"></path><path fill="black"  d="M70,300l -8,-8 l 0,16 Z" stroke="black"></path> 
<style type="text/css">
.frame {visibility:hidden;animation:frames 3s linear infinite}
#_frame_0{ animation-delay:0s}
#_frame_1{ animation-delay:1.5s}
@keyframes frames {0% {visibility:visible} 20% {visibility:hidden}} </style>
<g id="_frame_1" class="frame">
  <g stroke="red" stroke-width="2" fill="lightCoral"> <circle cx="200" cy="300" r="30 " > </circle> 
<text x="200" y="300" dominant-baseline="middle " fill="red" >0</text> 

</g></g> <g id="_frame_1" class="frame">
  <g stroke="red" stroke-width="2" fill="lightCoral"> <circle cx="200" cy="300" r="30 " > </circle> 
<text x="200" y="300" dominant-baseline="middle " fill="red" >0</text> 

</g></g> <g id="_frame_0" class="frame">
  <g stroke="red" stroke-width="2" fill="lightCoral"> <circle cx="100" cy="300" r="30 " > </circle> 
<text x="100" y="300" dominant-baseline="middle " fill="red" >i</text> 
<path stroke="red" d="M 70 300 l-30 0"></path><path fill="red"  d="M70,300l -8,-8 l 0,16 Z" stroke="red"></path> 
<path fill="none"  d="M130,300 A 10,10 0 0 1 170,300" stroke="red"></path> 
 <text x="146" y="270" fill="black" text-anchor="middle"> b a  </text> 
 <path fill="red"  d="M170,300 l -10 -4 l 10 -9 Z" stroke="red"></path> 

</g></g> </svg>