 <svg xmlns="http://www.w3.org/2000/svg" xmlns:xlink="http://www.w3.org/1999/xlink" width="800" height="600" viewBox="0 0 800 600"> 
 <circle cx="300" cy="300" r="30 " stroke="black" stroke-width="2" fill="none" > </circle> 
<text x="300" y="300" dominant-baseline="middle " fill="black" >f</text> 
<circle cx="200" cy="200" r="30 " stroke="black" stroke-width="2" fill="none" > </circle> 
<text x="200" y="200" dominant-baseline="middle " fill="black" >u</text> 
<circle cx="200" cy="300" r="30 " stroke="black" stroke-width="2" fill="none" > </circle> 
<text x="200" y="300" dominant-baseline="middle " fill="black" >z</text> 
<circle cx="100" cy="300" r="30 " stroke="black" stroke-width="2" fill="none" > </circle> 
<text x="100" y="300" dominant-baseline="middle " fill="black" >i</text> 
<path fill="none"  d="M270 300 Q 250 315 230 300" stroke="black"></path> 
 <text x="246" y="330" fill="black" text-anchor="middle"> a  </text> 
 <path fill="black"  d="M230,300l 10 4 l -10 9 Z" stroke="black"></path> 
<path fill="none"  d="M200 230 Q 215 250 200 270" stroke="black"></path> 
 <text x="230" y="254" fill="black" text-anchor="middle"> b  </text> 
 <path fill="black"  d="M200,270 l 11,-2 l -9,-9 Z" stroke="black"></path> 
<path fill="none"  d="M205 329 A 15 20 0 1 1 195 329" stroke="black"></path> 
 <text x="230" y="360" fill="black" text-anchor="middle"> a  </text> 
 <path fill="black"  d="M195,329l -11 2 l 9 9 Z" stroke="black"></path> 
<path fill="none"  d="M170 300 Q 150 315 130 300" stroke="black"></path> 
 <text x="146" y="330" fill="black" text-anchor="middle"> b  </text> 
 <path fill="black"  d="M130,300l 10 4 l -10 9 Z" stroke="black"></path> 
<path fill="none"  d="M130 300 Q 150 285 170 300" stroke="black"></path> 
 <text x="146" y="270" fill="black" text-anchor="middle"> a  </text> 
 <path fill="black"  d="M170,300 l -10 -4 l 10 -9 Z" stroke="black"></path> 
<path stroke="black" d="M 330 300 l30 0"></path><path fill="black"  d="M360,300l -8,-8 l 0,16 Z" stroke="black"></path> 
<path stroke="black" d="M 300 330 l 0 30"></path><path fill="black"  d="M300,330 l -8 8 m 16 0 l -8 -8" stroke="black"></path> 
<path stroke="black" d="M 70 300 l-30 0"></path><path fill="black"  d="M70,300l -8,-8 l 0,16 Z" stroke="black"></path> 
<style type="text/css">
.frame {visibility:hidden;animation:frames 4.5s linear infinite}
#_frame_0{ animation-delay:0s}
#_frame_1{ animation-delay:1.5s}
#_frame_2{ animation-delay:3s}
@keyframes frames {0% {visibility:visible} 33.34% {visibility:hidden}} </style>
<g id="_frame_2" class="frame">
  <g stroke="red" stroke-width="2" fill="lightCoral"> <circle cx="200" cy="300" r="30 " > </circle> 
<text x="200" y="300" dominant-baseline="middle " fill="red" >z</text> 

</g></g> <g id="_frame_1" class="frame">
  <g stroke="red" stroke-width="2" fill="lightCoral"> <circle cx="200" cy="300" r="30 " > </circle> 
<text x="200" y="300" dominant-baseline="middle " fill="red" >z</text> 
<path fill="none"  d="M205 329 A 15 20 0 1 1 195 329" stroke="red"></path> 
 <text x="230" y="360" fill="black" text-anchor="middle"> a  </text> 
 <path fill="red"  d="M195,329l -11 2 l 9 9 Z" stroke="red"></path> 

</g></g> <g id="_frame_0" class="frame">
  <g stroke="red" stroke-width="2" fill="lightCoral"> <circle cx="100" cy="300" r="30 " > </circle> 
<text x="100" y="300" dominant-baseline="middle " fill="red" >i</text> 
<path stroke="red" d="M 70 300 l-30 0"></path><path fill="red"  d="M70,300l -8,-8 l 0,16 Z" stroke="red"></path> 
<path fill="none"  d="M130 300 Q 150 285 170 300" stroke="red"></path> 
 <text x="146" y="270" fill="black" text-anchor="middle"> a  </text> 
 <path fill="red"  d="M170,300 l -10 -4 l 10 -9 Z" stroke="red"></path> 

</g></g> </svg>